# xmcd CD database file
#
# Track frame offsets:
#	150
#	11702
#	25281
#	41847
#	54190
#	68174
#	81382
#	95507
#	107524
#	118346
#	135536
#	148336
#	161619
#	173314
#	185512
#	204222
#	220386
#	232621
#	248584
#	258194
#
# Disc length: 3642 seconds
#
# Revision: 0
# Processed by: cddbd v1.4PL0 Copyright (c) Steve Scherf et al.
# Submitted via: CDex 1.40Release
#
DISCID=0d0e3814
DTITLE=Foster and Allen - Partners in Rhyme
DYEAR=1900
DGENRE=Country
TTITLE0=Heartbeat
TTITLE1=Blueberry Hill 
TTITLE2=No Matter What 
TTITLE3=Putting On The Style 
TTITLE4=Partners In Rhyme 
TTITLE5=Gentle On My Mind 
TTITLE6=True Love
TTITLE7=Lovely Leitrim 
TTITLE8=Bye Bye Love 
TTITLE9=I Wish It Was Me 
TTITLE10=Have A Drink On Me 
TTITLE11=My First Love 
TTITLE12=Born To Be With You 
TTITLE13=Among The Wicklow Hills 
TTITLE14=Cottage In The Country 
TTITLE15=Let It Be Me 
TTITLE16=Nobody Loves Like An Irishman 
TTITLE17=Far Away A Light Is Burning 
TTITLE18=Dwyer's/Dowd's No. 9 (Reels) 
TTITLE19=Beautiful Isle of somewhere
EXTD=ID3G: 2
EXTT0=
EXTT1=
EXTT2=
EXTT3=
EXTT4=
EXTT5=
EXTT6=
EXTT7=
EXTT8=
EXTT9=
EXTT10=
EXTT11=
EXTT12=
EXTT13=
EXTT14=
EXTT15=
EXTT16=
EXTT17=
EXTT18=
EXTT19=
PLAYORDER=
